<?xml version="1.0" encoding="UTF-8" standalone="no"?>
<svg
   xmlns:dc="http://purl.org/dc/elements/1.1/"
   xmlns:cc="http://creativecommons.org/ns#"
   xmlns:rdf="http://www.w3.org/1999/02/22-rdf-syntax-ns#"
   xmlns:svg="http://www.w3.org/2000/svg"
   xmlns="http://www.w3.org/2000/svg"
   xmlns:sodipodi="http://sodipodi.sourceforge.net/DTD/sodipodi-0.dtd"
   xmlns:inkscape="http://www.inkscape.org/namespaces/inkscape"
   width="600px"
   height="600px"
   viewBox="0 0 600 600"
   version="1.1"
   id="SVGRoot"
   sodipodi:docname="BLOG.svg"
   inkscape:version="1.0 (b51213c273, 2020-08-10)"
   inkscape:export-filename="/home/swimmingkiim/Pictures/icon/BLOG.png"
   inkscape:export-xdpi="96"
   inkscape:export-ydpi="96">
  <defs
     id="defs833" />
  <sodipodi:namedview
     id="base"
     pagecolor="#ffffff"
     bordercolor="#666666"
     borderopacity="1.0"
     inkscape:pageopacity="1.0"
     inkscape:pageshadow="0"
     inkscape:zoom="0.80059231"
     inkscape:cx="135.19899"
     inkscape:cy="226.83621"
     inkscape:document-units="px"
     inkscape:current-layer="layer1"
     inkscape:document-rotation="0"
     showgrid="false"
     inkscape:window-width="1920"
     inkscape:window-height="1024"
     inkscape:window-x="0"
     inkscape:window-y="30"
     inkscape:window-maximized="1" />
  <metadata
     id="metadata836">
    <rdf:RDF>
      <cc:Work
         rdf:about="">
        <dc:format>image/svg+xml</dc:format>
        <dc:type
           rdf:resource="http://purl.org/dc/dcmitype/StillImage" />
        <dc:title></dc:title>
      </cc:Work>
    </rdf:RDF>
  </metadata>
  <g
     inkscape:label="Layer 1"
     inkscape:groupmode="layer"
     id="layer1">
    <circle
       style="fill:none;stroke:#ffffff;stroke-width:48.4984;stroke-linecap:square;stroke-miterlimit:4;stroke-dasharray:none;paint-order:fill markers stroke;stop-color:#000000"
       id="path830"
       cx="300"
       cy="300"
       r="275.75082" />
    <g
       aria-label="BLOG"
       id="text834"
       style="font-style:normal;font-weight:normal;font-size:192px;line-height:1.25;font-family:sans-serif;fill:#ffffff;fill-opacity:1;stroke:none">
      <path
         d="m 165.114,295.7366 q 5.568,3.648 9.408,8.64 4.032,4.8 6.336,11.904 2.496,7.872 2.496,15.936 0.192,7.872 -2.88,14.784 -2.88,6.72 -9.408,11.712 -6.336,5.184 -16.704,7.296 -5.568,1.344 -13.056,2.112 -7.488,0.768 -13.44,0.768 -7.488,0.192 -15.552,0 -7.872,0 -15.359997,-1.536 -3.264,-0.96 -4.8,-3.456 -1.344,-2.304 -1.92,-5.376 -0.768,-1.728 -0.768,-3.456 v -109.056 q 0,-5.376 2.112,-8.256 2.304,-3.072 5.952,-4.416 3.647997,-1.536 8.255997,-1.728 4.608,-0.384 9.6,-0.384 3.84,0 7.68,0 4.032,-0.192 8.064,0 6.336,0.192 13.056,1.152 6.912,0.768 13.056,3.072 2.88,0.96 6.144,2.688 3.264,1.536 5.184,3.84 6.144,5.568 9.024,13.056 3.072,7.296 2.688,14.976 -0.384,7.488 -4.224,14.4 -3.648,6.912 -10.944,11.328 z m -33.6,50.88 q 5.952,-0.384 12.096,-1.344 6.144,-0.96 8.448,-3.648 2.496,-3.072 3.456,-7.104 1.152,-4.224 0.576,-8.448 -0.384,-4.416 -2.496,-8.256 -1.92,-4.032 -5.184,-6.336 -4.416,-3.456 -10.176,-4.416 -5.76,-1.152 -11.328,-1.152 -2.688,0 -4.992,0.192 -2.112,0 -3.84,0.576 -1.536,0.384 -2.304,1.728 -0.768,1.344 -0.768,4.032 0.384,4.992 0,9.984 -0.384,4.992 -0.384,9.6 0,2.688 -0.192,5.952 0,3.072 2.112,5.184 2.112,2.112 6.144,2.88 4.032,0.768 8.832,0.576 z m 3.84,-92.16 q -5.952,-0.192 -9.984,-0.192 -3.84,-0.192 -6.144,0.576 -2.112,0.576 -3.072,2.88 -0.768,2.112 -0.576,6.528 0,3.648 -0.192,7.296 0,3.456 0,6.912 0,3.84 2.496,5.76 2.496,1.728 6.144,2.112 3.84,0.384 7.872,0 4.224,-0.384 7.296,-0.96 6.912,-1.152 10.56,-4.608 3.84,-3.648 4.416,-10.56 0.768,-8.64 -4.608,-11.904 -5.184,-3.456 -14.208,-3.84 z"
         style="font-style:normal;font-variant:normal;font-weight:normal;font-stretch:normal;font-size:192px;font-family:'BM JUA_TTF';-inkscape-font-specification:'BM JUA_TTF, Normal';font-variant-ligatures:normal;font-variant-caps:normal;font-variant-numeric:normal;font-variant-east-asian:normal;fill:#ffffff"
         id="path971" />
      <path
         d="m 285.045,351.9926 q 0.384,0.96 0.384,2.688 0,1.92 0,3.072 0,1.536 -0.576,2.88 -0.576,1.344 -1.536,2.496 -1.728,2.304 -4.992,3.456 -4.608,1.536 -8.64,1.536 -2.112,0.192 -4.416,0.192 -2.304,0 -4.608,0.384 h -0.768 q -14.784,0.192 -30.528,0 -3.84,-0.192 -8.64,0 -4.8,0.384 -9.408,-0.192 -4.608,-0.384 -8.448,-2.304 -3.648,-1.728 -5.184,-5.76 -0.384,-0.96 -0.576,-1.92 -0.192,-0.768 -0.192,-1.728 -0.768,-6.528 -0.576,-12.864 0.192,-6.336 0.192,-12.48 l 0.384,-27.84 v -25.728 q 0,-6.912 0,-12.288 0.192,-5.376 0.384,-11.904 v -0.96 q 0.192,-1.92 0.192,-3.84 0.192,-1.92 0.192,-3.84 0.384,-4.416 2.112,-7.488 1.152,-2.88 4.032,-4.608 2.496,-1.728 5.952,-1.728 1.344,0 2.496,0.192 1.344,0 2.496,0.192 1.152,0.192 2.112,0.768 1.152,0.576 2.304,1.536 1.152,1.344 2.112,3.264 0.768,2.112 0.96,4.224 0.192,1.344 0.384,2.496 0.192,1.152 0.192,2.304 -0.384,1.152 -0.384,2.304 0,1.152 0,2.112 v 3.456 l -0.768,90.432 38.016,0.384 h 9.024 q 1.152,0 2.496,0.192 1.344,0 2.688,0.192 1.536,0.192 2.688,0.384 1.152,0.192 2.304,0.576 2.112,0.576 3.456,1.92 2.112,1.92 2.688,3.84 z"
         style="font-style:normal;font-variant:normal;font-weight:normal;font-stretch:normal;font-size:192px;font-family:'BM JUA_TTF';-inkscape-font-specification:'BM JUA_TTF, Normal';font-variant-ligatures:normal;font-variant-caps:normal;font-variant-numeric:normal;font-variant-east-asian:normal;fill:#ffffff"
         id="path973" />
      <path
         d="m 321.45,235.2566 q 12.864,-4.8 23.232,-4.224 10.56,0.576 18.816,5.376 8.256,4.608 14.016,12.48 5.952,7.872 9.6,17.664 2.88,7.296 4.416,15.36 1.536,8.064 1.728,16.128 0.384,7.872 -0.576,15.552 -0.768,7.68 -2.688,14.208 -1.152,4.416 -2.688,8.064 -1.536,3.648 -3.648,7.296 -4.8,8.256 -12.48,13.44 -7.488,5.184 -16.512,7.296 -6.144,1.536 -12.672,1.344 -6.528,0 -12.864,-1.728 -6.336,-1.536 -12.288,-4.8 -5.76,-3.072 -10.56,-7.872 -5.952,-5.76 -9.792,-13.248 -3.84,-7.68 -5.952,-15.936 -2.112,-8.448 -2.688,-16.896 -0.576,-8.448 0,-16.128 0.576,-7.104 2.688,-15.168 2.304,-8.064 6.528,-15.552 4.224,-7.488 10.176,-13.44 6.144,-6.144 14.208,-9.216 z m 44.928,82.176 q 2.304,-9.024 1.92,-20.352 -0.384,-11.328 -3.648,-21.312 -2.112,-6.144 -5.376,-10.752 -3.072,-4.8 -7.488,-7.296 -4.224,-2.496 -9.984,-2.496 -5.76,0 -12.864,3.456 -4.224,2.112 -7.296,5.76 -2.88,3.648 -4.8,8.256 -1.728,4.608 -2.88,9.6 -0.96,4.992 -1.152,9.6 -0.384,4.992 -0.192,10.56 0.192,5.376 1.152,10.944 1.152,5.376 3.072,10.368 1.92,4.8 5.184,8.64 4.992,5.76 11.52,8.064 6.72,2.112 13.248,0.576 10.56,-2.304 16.128,-14.016 2.304,-4.224 3.456,-9.6 z"
         style="font-style:normal;font-variant:normal;font-weight:normal;font-stretch:normal;font-size:192px;font-family:'BM JUA_TTF';-inkscape-font-specification:'BM JUA_TTF, Normal';font-variant-ligatures:normal;font-variant-caps:normal;font-variant-numeric:normal;font-variant-east-asian:normal;fill:#ffffff"
         id="path975" />
      <path
         d="m 510.534,320.8886 q 0,5.76 -0.576,11.712 -0.576,5.76 -2.304,11.328 -1.728,5.376 -5.184,10.176 -3.456,4.992 -9.408,8.64 -2.88,1.92 -6.912,3.072 -3.84,1.344 -8.256,2.112 -4.224,0.96 -8.448,1.152 -4.224,0.384 -7.872,0.192 -17.28,-0.576 -28.032,-8.448 -10.56,-7.68 -16.32,-19.2 -5.568,-11.52 -7.296,-24.96 -1.536,-13.632 -0.576,-25.92 0.576,-7.296 2.496,-15.744 2.112,-8.448 5.952,-16.32 4.032,-7.872 9.792,-14.208 5.952,-6.336 14.016,-9.6 7.488,-3.072 16.32,-3.84 9.024,-0.96 17.664,0.576 8.832,1.536 16.32,5.568 7.68,4.032 12.096,10.752 3.072,4.992 4.8,12.096 1.728,7.104 0.576,13.632 -0.96,5.76 -4.032,8.064 -3.072,2.112 -6.72,1.728 -3.648,-0.576 -7.104,-3.072 -3.264,-2.688 -4.416,-6.72 -1.344,-4.416 -3.264,-8.064 -1.92,-3.84 -5.952,-6.336 -4.608,-2.88 -9.792,-3.264 -4.992,-0.384 -9.792,1.152 -4.608,1.536 -8.832,4.8 -4.032,3.264 -6.72,7.488 -3.264,4.8 -4.992,10.56 -1.728,5.568 -2.496,11.712 -0.768,5.952 -0.576,12.096 0.384,5.952 1.536,11.52 2.112,9.408 6.528,17.664 1.728,3.072 4.608,5.568 3.072,2.304 6.72,3.84 3.648,1.344 7.68,1.728 4.032,0.384 7.68,-0.576 5.184,-1.344 8.448,-3.456 3.264,-2.304 5.184,-5.376 1.92,-3.072 2.496,-6.72 0.768,-3.648 0.768,-7.68 v -0.192 q -2.496,0 -4.416,0 -1.92,-0.192 -2.88,-0.192 -4.224,0 -8.256,-1.536 -3.456,-1.152 -5.184,-3.648 -1.92,-2.112 -1.92,-5.184 0,-1.152 0,-2.112 0.192,-1.152 0.384,-2.304 0.576,-1.536 2.496,-3.84 1.152,-0.96 3.648,-1.536 1.152,-0.384 2.304,-0.576 1.152,-0.384 2.688,-0.576 1.152,-0.192 2.496,-0.192 1.344,0 2.688,0 h 17.472 q 2.112,-0.192 4.8,0.576 2.88,0.576 4.416,1.92 0.576,0.768 1.152,1.536 0.576,0.768 0.96,1.728 0.768,2.112 0.96,4.224 0.192,1.152 0.192,2.496 0.192,1.152 0.192,2.112 v 7.872 z"
         style="font-style:normal;font-variant:normal;font-weight:normal;font-stretch:normal;font-size:192px;font-family:'BM JUA_TTF';-inkscape-font-specification:'BM JUA_TTF, Normal';font-variant-ligatures:normal;font-variant-caps:normal;font-variant-numeric:normal;font-variant-east-asian:normal;fill:#ffffff"
         id="path977" />
    </g>
  </g>
</svg>
