<?xml version="1.0" encoding="UTF-8" standalone="no"?>
<svg
   xmlns:dc="http://purl.org/dc/elements/1.1/"
   xmlns:cc="http://creativecommons.org/ns#"
   xmlns:rdf="http://www.w3.org/1999/02/22-rdf-syntax-ns#"
   xmlns:svg="http://www.w3.org/2000/svg"
   xmlns="http://www.w3.org/2000/svg"
   xmlns:sodipodi="http://sodipodi.sourceforge.net/DTD/sodipodi-0.dtd"
   xmlns:inkscape="http://www.inkscape.org/namespaces/inkscape"
   width="530px"
   height="200px"
   viewBox="0 0 530 200"
   version="1.1"
   id="SVGRoot"
   sodipodi:docname="colorful-fish.svg"
   inkscape:version="1.0 (b51213c273, 2020-08-10)">
  <defs
     id="defs833" />
  <sodipodi:namedview
     id="base"
     pagecolor="#ffffff"
     bordercolor="#666666"
     borderopacity="1.0"
     inkscape:pageopacity="1.0"
     inkscape:pageshadow="0"
     inkscape:zoom="1.1941418"
     inkscape:cx="317.35589"
     inkscape:cy="136.3185"
     inkscape:document-units="px"
     inkscape:current-layer="layer1"
     inkscape:document-rotation="0"
     showgrid="false"
     inkscape:window-width="1428"
     inkscape:window-height="910"
     inkscape:window-x="0"
     inkscape:window-y="30"
     inkscape:window-maximized="0" />
  <metadata
     id="metadata836">
    <rdf:RDF>
      <cc:Work
         rdf:about="">
        <dc:format>image/svg+xml</dc:format>
        <dc:type
           rdf:resource="http://purl.org/dc/dcmitype/StillImage" />
        <dc:title></dc:title>
      </cc:Work>
    </rdf:RDF>
  </metadata>
  <g
     inkscape:label="Layer 1"
     inkscape:groupmode="layer"
     id="layer1">
    <g
       id="g1761"
       transform="matrix(0.4551939,0,0,0.4551939,704.37492,-551.45248)">
      <path
         style="color:#000000;font-style:normal;font-variant:normal;font-weight:normal;font-stretch:normal;font-size:medium;line-height:normal;font-family:sans-serif;font-variant-ligatures:normal;font-variant-position:normal;font-variant-caps:normal;font-variant-numeric:normal;font-variant-alternates:normal;font-variant-east-asian:normal;font-feature-settings:normal;font-variation-settings:normal;text-indent:0;text-align:start;text-decoration:none;text-decoration-line:none;text-decoration-style:solid;text-decoration-color:#000000;letter-spacing:normal;word-spacing:normal;text-transform:none;writing-mode:lr-tb;direction:ltr;text-orientation:mixed;dominant-baseline:auto;baseline-shift:baseline;text-anchor:start;white-space:normal;shape-padding:0;shape-margin:0;inline-size:0;clip-rule:nonzero;display:inline;overflow:visible;visibility:visible;isolation:auto;mix-blend-mode:normal;color-interpolation:sRGB;color-interpolation-filters:linearRGB;solid-color:#000000;solid-opacity:1;vector-effect:none;fill:#87c5db;fill-opacity:1;fill-rule:nonzero;stroke:none;stroke-width:55.5403;stroke-linecap:square;stroke-linejoin:miter;stroke-miterlimit:4;stroke-dasharray:none;stroke-dashoffset:0;stroke-opacity:1;paint-order:fill markers stroke;color-rendering:auto;image-rendering:auto;shape-rendering:auto;text-rendering:auto;enable-background:accumulate;stop-color:#000000"
         d="m -425.39818,1246.0893 c -24.45075,0.09 -168.89892,79.585 -254.14453,134.9903 -103.76005,-73.982 -244.64789,-115.5605 -391.57419,-115.5606 0,0 -1.1133,0 -1.1133,0 -178.7809,0.2567 -346.3605,61.9595 -449.8555,165.6367 103.7234,103.9042 271.7952,165.6347 450.9688,165.6348 146.926,-10e-4 287.81311,-41.5802 391.57223,-115.5625 89.18858,57.9682 243.19339,142.3093 256.75,134.4824 19.17964,-11.0734 19.17963,-358.0399 0,-369.1133 -0.59936,-0.346 -1.47249,-0.5119 -2.60351,-0.5078 z"
         id="path1746" />
      <path
         id="path1668"
         style="fill:#f1c075;fill-opacity:1;stroke:none;stroke-width:18.8164;stroke-linecap:square;stroke-opacity:1;paint-order:fill markers stroke;stop-color:#000000"
         d="m -788.92969,1320.2637 a 52.839898,72.486499 0 0 0 8.38086,19.9961 52.839898,72.486499 0 0 0 -11.80664,45.6679 52.839898,72.486499 0 0 0 12.41211,46.6758 52.839898,72.486499 0 0 0 -12.41211,46.6758 52.839898,72.486499 0 0 0 10.88281,44.0645 52.839898,72.486499 0 0 0 -7.45703,18.3906 c 36.6233,-15.4239 70.88423,-33.9129 101.99024,-55.2364 a 52.839898,72.486499 0 0 0 0.26367,-7.2187 52.839898,72.486499 0 0 0 -12.41211,-46.6758 52.839898,72.486499 0 0 0 12.41211,-46.6758 52.839898,72.486499 0 0 0 -0.57227,-10.6406 c -31.02386,-21.2337 -65.17977,-39.6511 -101.68164,-55.0234 z" />
      <path
         id="path1670"
         style="fill:#7c2781;fill-opacity:1;stroke:none;stroke-width:18.8164;stroke-linecap:square;stroke-opacity:1;paint-order:fill markers stroke;stop-color:#000000"
         d="m -873.15625,1291.3262 a 52.839898,72.486499 0 0 0 -0.0547,3.2656 52.839898,72.486499 0 0 0 11.80664,45.668 52.839898,72.486499 0 0 0 -11.80664,45.6679 52.839898,72.486499 0 0 0 12.41406,46.6758 52.839898,72.486499 0 0 0 -12.41406,46.6758 52.839898,72.486499 0 0 0 10.88477,44.0645 52.839898,72.486499 0 0 0 -10.88477,44.0624 52.839898,72.486499 0 0 0 0.0547,3.2657 c 34.88634,-9.4908 68.3962,-21.4886 99.99219,-35.8321 a 52.839898,72.486499 0 0 0 -5.25,-11.496 52.839898,72.486499 0 0 0 10.88281,-44.0645 52.839898,72.486499 0 0 0 -12.41211,-46.6758 52.839898,72.486499 0 0 0 12.41211,-46.6758 52.839898,72.486499 0 0 0 -11.80469,-45.666 52.839898,72.486499 0 0 0 6.17188,-13.1055 c -31.59606,-14.3431 -65.10586,-26.3396 -99.99219,-35.83 z" />
      <path
         id="path1672"
         style="fill:#cc2a35;fill-opacity:1;stroke:none;stroke-width:18.8164;stroke-linecap:square;stroke-opacity:1;paint-order:fill markers stroke;stop-color:#000000"
         d="m -952.00195,1274.541 a 52.839898,72.486499 0 0 0 -2.06055,20.0508 52.839898,72.486499 0 0 0 11.80664,45.668 52.839898,72.486499 0 0 0 -11.80664,45.6679 52.839898,72.486499 0 0 0 12.41406,46.6758 52.839898,72.486499 0 0 0 -12.41406,46.6758 52.839898,72.486499 0 0 0 10.88477,44.0645 52.839898,72.486499 0 0 0 -10.88477,44.0624 52.839898,72.486499 0 0 0 2.0625,20.0508 c 35.60363,-5.5669 70.28153,-13.6144 103.53906,-23.9961 a 52.839898,72.486499 0 0 0 -10.80664,-40.1191 52.839898,72.486499 0 0 0 10.88477,-44.0625 52.839898,72.486499 0 0 0 -12.41407,-46.6758 52.839898,72.486499 0 0 0 12.41407,-46.6758 52.839898,72.486499 0 0 0 -11.80469,-45.666 52.839898,72.486499 0 0 0 11.72656,-41.7265 c -33.25813,-10.3816 -67.93679,-18.4275 -103.54101,-23.9942 z" />
      <path
         id="path1674"
         style="fill:#e39407;fill-opacity:1;stroke:none;stroke-width:18.8164;stroke-linecap:square;stroke-opacity:1;paint-order:fill markers stroke;stop-color:#000000"
         d="m -1030.7559,1266.3965 a 52.839898,72.486499 0 0 0 -4.1601,28.1953 52.839898,72.486499 0 0 0 11.8066,45.668 52.839898,72.486499 0 0 0 -11.8066,45.6679 52.839898,72.486499 0 0 0 12.414,46.6758 52.839898,72.486499 0 0 0 -12.414,46.6758 52.839898,72.486499 0 0 0 10.8848,44.0645 52.839898,72.486499 0 0 0 -10.8848,44.0624 52.839898,72.486499 0 0 0 4.1621,28.1973 c 33.99983,-1.7519 67.51463,-5.7281 100.15038,-11.8086 a 52.839898,72.486499 0 0 0 1.36914,-16.3887 52.839898,72.486499 0 0 0 -10.88671,-44.0644 52.839898,72.486499 0 0 0 10.88671,-44.0625 52.839898,72.486499 0 0 0 -12.41406,-46.6758 52.839898,72.486499 0 0 0 12.41406,-46.6758 52.839898,72.486499 0 0 0 -11.80664,-45.6679 52.839898,72.486499 0 0 0 11.80664,-45.668 52.839898,72.486499 0 0 0 -1.36914,-16.3887 c -32.63637,-6.0803 -66.15189,-10.0548 -100.15238,-11.8066 z" />
      <path
         id="path1676"
         style="fill:#f1c075;fill-opacity:1;stroke:none;stroke-width:18.8164;stroke-linecap:square;stroke-opacity:1;paint-order:fill markers stroke;stop-color:#000000"
         d="m -1071.8516,1265.3633 c -13.3271,0.019 -26.5907,0.388 -39.7714,1.082 a 52.839898,72.486499 0 0 0 -4.1465,28.1465 52.839898,72.486499 0 0 0 11.8066,45.668 52.839898,72.486499 0 0 0 -11.8066,45.6679 52.839898,72.486499 0 0 0 12.4121,46.6758 52.839898,72.486499 0 0 0 -12.4121,46.6758 52.839898,72.486499 0 0 0 10.8828,44.0645 52.839898,72.486499 0 0 0 -10.8828,44.0624 52.839898,72.486499 0 0 0 4.1484,28.1504 c 13.547,0.7132 27.1822,1.0782 40.8828,1.0782 19.0594,0 38.0144,-0.7066 56.8028,-2.086 a 52.839898,72.486499 0 0 0 3.8457,-27.1426 52.839898,72.486499 0 0 0 -10.8848,-44.0624 52.839898,72.486499 0 0 0 10.8848,-44.0645 52.839898,72.486499 0 0 0 -12.4122,-46.6758 52.839898,72.486499 0 0 0 12.4122,-46.6758 52.839898,72.486499 0 0 0 -11.8047,-45.6679 52.839898,72.486499 0 0 0 11.8047,-45.668 52.839898,72.486499 0 0 0 -3.8438,-27.1426 c -18.789,-1.3794 -37.7446,-2.0859 -56.8047,-2.0859 z" />
      <path
         id="path1678"
         style="fill:#7c2781;fill-opacity:1;stroke:none;stroke-width:18.8164;stroke-linecap:square;stroke-opacity:1;paint-order:fill markers stroke;stop-color:#000000"
         d="m -1095.3047,1265.7578 c -33.7507,1.0654 -67.0149,4.3116 -99.4277,9.6152 a 52.839898,72.486499 0 0 0 -1.8906,19.2188 52.839898,72.486499 0 0 0 11.8066,45.668 52.839898,72.486499 0 0 0 -11.8066,45.6679 52.839898,72.486499 0 0 0 12.4121,46.6758 52.839898,72.486499 0 0 0 -12.4121,46.6758 52.839898,72.486499 0 0 0 10.8828,44.0645 52.839898,72.486499 0 0 0 -10.8828,44.0624 52.839898,72.486499 0 0 0 1.8925,19.2188 c 32.4134,5.3036 65.6746,8.556 99.4239,9.6211 a 52.839898,72.486499 0 0 0 4.3613,-28.8399 52.839898,72.486499 0 0 0 -10.8828,-44.0624 52.839898,72.486499 0 0 0 10.8828,-44.0645 52.839898,72.486499 0 0 0 -12.4121,-46.6758 52.839898,72.486499 0 0 0 12.4121,-46.6758 52.839898,72.486499 0 0 0 -11.8047,-45.6679 52.839898,72.486499 0 0 0 11.8047,-45.668 52.839898,72.486499 0 0 0 -4.3594,-28.834 z" />
      <path
         id="path1680"
         style="fill:#cc2a35;fill-opacity:1;stroke:none;stroke-width:18.8164;stroke-linecap:square;stroke-opacity:1;paint-order:fill markers stroke;stop-color:#000000"
         d="m -1174.3535,1272.332 c -35.4339,4.8061 -69.9594,12.0477 -103.1211,21.5547 a 52.839898,72.486499 0 0 0 0,0.7051 52.839898,72.486499 0 0 0 11.8066,45.668 52.839898,72.486499 0 0 0 -11.8066,45.6679 52.839898,72.486499 0 0 0 12.414,46.6758 52.839898,72.486499 0 0 0 -12.414,46.6758 52.839898,72.486499 0 0 0 10.8847,44.0645 52.839898,72.486499 0 0 0 -10.8847,44.0624 52.839898,72.486499 0 0 0 0,0.7071 c 33.1629,9.5073 67.6898,16.7468 103.1231,21.5527 a 52.839898,72.486499 0 0 0 2.5547,-22.2598 52.839898,72.486499 0 0 0 -10.8828,-44.0624 52.839898,72.486499 0 0 0 10.8828,-44.0645 52.839898,72.486499 0 0 0 -12.4121,-46.6758 52.839898,72.486499 0 0 0 12.4121,-46.6758 52.839898,72.486499 0 0 0 -11.8047,-45.6679 52.839898,72.486499 0 0 0 11.8047,-45.668 52.839898,72.486499 0 0 0 -2.5547,-22.2598 z" />
      <path
         id="path1682"
         style="fill:#e39407;fill-opacity:1;stroke:none;stroke-width:18.8164;stroke-linecap:square;stroke-opacity:1;paint-order:fill markers stroke;stop-color:#000000"
         d="m -1252.918,1287.3223 c -35.4687,8.8027 -69.5578,20.1415 -101.7363,33.83 a 52.839898,72.486499 0 0 0 8.1289,19.1075 52.839898,72.486499 0 0 0 -11.8066,45.6679 52.839898,72.486499 0 0 0 12.414,46.6758 52.839898,72.486499 0 0 0 -12.414,46.6758 52.839898,72.486499 0 0 0 10.8847,44.0645 52.839898,72.486499 0 0 0 -7.207,17.5 c 32.1796,13.6888 66.2682,25.0295 101.7363,33.832 a 52.839898,72.486499 0 0 0 0.2676,-7.2696 52.839898,72.486499 0 0 0 -10.8848,-44.0644 52.839898,72.486499 0 0 0 10.8848,-44.0625 52.839898,72.486499 0 0 0 -12.4141,-46.6758 52.839898,72.486499 0 0 0 12.4141,-46.6758 52.839898,72.486499 0 0 0 -11.8047,-45.666 52.839898,72.486499 0 0 0 11.8047,-45.6699 52.839898,72.486499 0 0 0 -0.2676,-7.2695 z" />
    </g>
  </g>
</svg>
