<?xml version="1.0" encoding="UTF-8" standalone="no"?>
<svg
   xmlns:dc="http://purl.org/dc/elements/1.1/"
   xmlns:cc="http://creativecommons.org/ns#"
   xmlns:rdf="http://www.w3.org/1999/02/22-rdf-syntax-ns#"
   xmlns:svg="http://www.w3.org/2000/svg"
   xmlns="http://www.w3.org/2000/svg"
   xmlns:sodipodi="http://sodipodi.sourceforge.net/DTD/sodipodi-0.dtd"
   xmlns:inkscape="http://www.inkscape.org/namespaces/inkscape"
   width="600px"
   height="600px"
   viewBox="0 0 600 600"
   version="1.1"
   id="SVGRoot"
   sodipodi:docname="github-transparent.svg"
   inkscape:version="1.0 (b51213c273, 2020-08-10)">
  <defs
     id="defs833" />
  <sodipodi:namedview
     id="base"
     pagecolor="#ffffff"
     bordercolor="#666666"
     borderopacity="1.0"
     inkscape:pageopacity="1.0"
     inkscape:pageshadow="0"
     inkscape:zoom="0.41362058"
     inkscape:cx="217.41917"
     inkscape:cy="192.52266"
     inkscape:document-units="px"
     inkscape:current-layer="layer1"
     inkscape:document-rotation="0"
     showgrid="false"
     inkscape:window-width="1920"
     inkscape:window-height="1024"
     inkscape:window-x="0"
     inkscape:window-y="30"
     inkscape:window-maximized="1"
     showguides="true"
     inkscape:guide-bbox="true" />
  <metadata
     id="metadata836">
    <rdf:RDF>
      <cc:Work
         rdf:about="">
        <dc:format>image/svg+xml</dc:format>
        <dc:type
           rdf:resource="http://purl.org/dc/dcmitype/StillImage" />
        <dc:title></dc:title>
      </cc:Work>
    </rdf:RDF>
  </metadata>
  <g
     inkscape:label="Layer 1"
     inkscape:groupmode="layer"
     id="layer1">
    <path
       d="M 300.00249,-3.0041072e-8 C 134.3374,-3.0041072e-8 -2.0000001e-6,137.70798 -2.0000001e-6,307.59276 -2.0000001e-6,443.49756 85.959832,558.79837 205.16001,599.47252 c 14.99317,2.84686 20.49761,-6.67377 20.49761,-14.79821 0,-7.33493 -0.2782,-31.56559 -0.40737,-57.26837 C 141.78928,546.01321 124.17801,491.1134 124.17801,491.1134 110.53115,455.55943 90.868152,446.10554 90.868152,446.10554 c -27.219223,-19.09118 2.05173,-18.69896 2.05173,-18.69896 30.125448,2.16482 45.988008,31.69804 45.988008,31.69804 26.75718,47.02497 70.18173,33.42992 87.30117,25.57035 2.69262,-19.8756 10.46741,-33.45539 19.04701,-41.13157 -66.63466,-7.77808 -136.68228,-34.1532 -136.68228,-152.01613 0,-33.58271 11.7193,-61.02243 30.91037,-82.56365 -3.11489,-7.7526 -13.38355,-39.03297 2.90622,-81.4023 0,0 25.19231,-8.26705 82.52206,31.52997 23.93045,-6.81537 49.59469,-10.23323 75.09005,-10.35039 25.49532,0.11709 51.17946,3.53502 75.15463,10.35039 57.26019,-39.79702 82.4177,-31.52997 82.4177,-31.52997 16.32955,42.36933 6.05591,73.6497 2.94101,81.4023 19.23576,21.54122 30.87561,48.98094 30.87561,82.56365 0,118.14308 -70.18176,144.15656 -136.98532,151.77162 10.76052,9.54559 20.3486,28.2649 20.3486,56.96278 0,41.15191 -0.34776,74.27621 -0.34776,84.41264 0,8.18556 5.40012,17.77647 20.60691,14.75642 C 514.14946,558.71178 600,443.4517 600,307.59276 600,137.70798 465.68246,-3.0041072e-8 300.00249,-3.0041072e-8"
       style="fill:#ffffff;fill-opacity:1;fill-rule:evenodd;stroke:none;stroke-width:0.503041"
       id="path1325" />
  </g>
</svg>
